<svg xmlns="http://www.w3.org/2000/svg" width="1200" height="750" viewBox="0 0 1200 750">
  <defs>
    <linearGradient id="bg" x1="0" y1="0" x2="1" y2="1">
      <stop offset="0%" stop-color="#0f1623"/>
      <stop offset="100%" stop-color="#0d1117"/>
    </linearGradient>
  </defs>
  <rect width="1200" height="750" fill="url(#bg)"/>
  <!-- Browser chrome -->
  <rect width="1200" height="46" fill="#1c2133"/>
  <circle cx="22" cy="23" r="7" fill="#ff5f57"/><circle cx="42" cy="23" r="7" fill="#febc2e"/><circle cx="62" cy="23" r="7" fill="#28c840"/>
  <rect x="120" y="12" width="700" height="22" rx="11" fill="#252d45"/>
  <text x="470" y="28" font-family="system-ui,sans-serif" font-size="12" fill="#5a6480">localhost:8080/dashboard</text>
  <!-- Sidebar -->
  <rect x="0" y="46" width="200" height="704" fill="#161c2c"/>
  <rect x="16" y="72" width="120" height="16" rx="4" fill="#2a3352"/>
  <rect x="16" y="108" width="168" height="36" rx="6" fill="#3b4fd8" opacity=".9"/>
  <text x="32" y="131" font-family="system-ui,sans-serif" font-size="13" fill="#fff">Dashboard</text>
  <rect x="16" y="154" width="168" height="32" rx="6" fill="none"/>
  <text x="32" y="175" font-family="system-ui,sans-serif" font-size="13" fill="#6b7494">Transactions</text>
  <rect x="16" y="196" width="168" height="32" rx="6" fill="none"/>
  <text x="32" y="217" font-family="system-ui,sans-serif" font-size="13" fill="#6b7494">Schedule</text>
  <rect x="16" y="238" width="168" height="32" rx="6" fill="none"/>
  <text x="32" y="259" font-family="system-ui,sans-serif" font-size="13" fill="#6b7494">Announcements</text>
  <rect x="16" y="280" width="168" height="32" rx="6" fill="none"/>
  <text x="32" y="301" font-family="system-ui,sans-serif" font-size="13" fill="#6b7494">Users</text>
  <!-- Main area -->
  <rect x="216" y="62" width="968" height="672" fill="url(#bg)"/>
  <text x="232" y="92" font-family="system-ui,sans-serif" font-size="18" font-weight="700" fill="#e8ecf4">Church Management Dashboard</text>
  <!-- Stat cards row -->
  <rect x="232" y="108" width="210" height="90" rx="10" fill="#1e2640"/>
  <text x="248" y="138" font-family="system-ui,sans-serif" font-size="12" fill="#6b7494">Total Transactions</text>
  <text x="248" y="170" font-family="system-ui,sans-serif" font-size="28" font-weight="700" fill="#e8ecf4">1,248</text>
  <rect x="456" y="108" width="210" height="90" rx="10" fill="#1e2640"/>
  <text x="472" y="138" font-family="system-ui,sans-serif" font-size="12" fill="#6b7494">Upcoming Events</text>
  <text x="472" y="170" font-family="system-ui,sans-serif" font-size="28" font-weight="700" fill="#e8ecf4">14</text>
  <rect x="680" y="108" width="210" height="90" rx="10" fill="#1e2640"/>
  <text x="696" y="138" font-family="system-ui,sans-serif" font-size="12" fill="#6b7494">Active Members</text>
  <text x="696" y="170" font-family="system-ui,sans-serif" font-size="28" font-weight="700" fill="#e8ecf4">380</text>
  <!-- Table -->
  <rect x="232" y="216" width="658" height="36" rx="6" fill="#252d45"/>
  <text x="248" y="239" font-family="system-ui,sans-serif" font-size="12" fill="#8892b0">Date</text>
  <text x="360" y="239" font-family="system-ui,sans-serif" font-size="12" fill="#8892b0">Description</text>
  <text x="580" y="239" font-family="system-ui,sans-serif" font-size="12" fill="#8892b0">Amount</text>
  <text x="720" y="239" font-family="system-ui,sans-serif" font-size="12" fill="#8892b0">Type</text>
  <rect x="232" y="260" width="658" height="30" rx="4" fill="#1e2640"/>
  <text x="248" y="280" font-family="system-ui,sans-serif" font-size="12" fill="#c5cee0">2025-06-01</text>
  <text x="360" y="280" font-family="system-ui,sans-serif" font-size="12" fill="#c5cee0">Sunday Offering</text>
  <text x="580" y="280" font-family="system-ui,sans-serif" font-size="12" fill="#4ade80">₱8,500</text>
  <text x="720" y="280" font-family="system-ui,sans-serif" font-size="12" fill="#6b7494">Income</text>
  <rect x="232" y="298" width="658" height="30" rx="4" fill="#161c2c"/>
  <text x="248" y="318" font-family="system-ui,sans-serif" font-size="12" fill="#c5cee0">2025-05-28</text>
  <text x="360" y="318" font-family="system-ui,sans-serif" font-size="12" fill="#c5cee0">Maintenance Fee</text>
  <text x="580" y="318" font-family="system-ui,sans-serif" font-size="12" fill="#f87171">-₱2,200</text>
  <text x="720" y="318" font-family="system-ui,sans-serif" font-size="12" fill="#6b7494">Expense</text>
  <rect x="232" y="336" width="658" height="30" rx="4" fill="#1e2640"/>
  <rect x="232" y="374" width="658" height="30" rx="4" fill="#161c2c"/>
  <rect x="232" y="412" width="658" height="30" rx="4" fill="#1e2640"/>
  <!-- Announcement panel -->
  <rect x="906" y="216" width="278" height="236" rx="10" fill="#1e2640"/>
  <text x="922" y="244" font-family="system-ui,sans-serif" font-size="13" font-weight="700" fill="#e8ecf4">Announcements</text>
  <rect x="918" y="256" width="246" height="56" rx="6" fill="#252d45"/>
  <text x="930" y="276" font-family="system-ui,sans-serif" font-size="11" font-weight="600" fill="#c5cee0">Youth Fellowship</text>
  <text x="930" y="294" font-family="system-ui,sans-serif" font-size="10" fill="#6b7494">Saturday 3:00 PM – Hall B</text>
  <rect x="918" y="320" width="246" height="56" rx="6" fill="#252d45"/>
  <text x="930" y="340" font-family="system-ui,sans-serif" font-size="11" font-weight="600" fill="#c5cee0">Bible Study</text>
  <text x="930" y="358" font-family="system-ui,sans-serif" font-size="10" fill="#6b7494">Wednesday 7:00 PM – Room 2</text>
  <!-- Placeholder label -->
  <text x="600" y="690" font-family="system-ui,sans-serif" font-size="13" fill="rgba(255,255,255,0.15)" text-anchor="middle">Replace with actual screenshot — /public/projects/church/cover.svg</text>
</svg>
