<svg xmlns="http://www.w3.org/2000/svg" width="1200" height="750" viewBox="0 0 1200 750">
  <defs>
    <linearGradient id="bg" x1="0" y1="0" x2="1" y2="1">
      <stop offset="0%" stop-color="#0f1623"/><stop offset="100%" stop-color="#0d1117"/>
    </linearGradient>
  </defs>
  <rect width="1200" height="750" fill="url(#bg)"/>
  <rect width="1200" height="46" fill="#1c2133"/>
  <circle cx="22" cy="23" r="7" fill="#ff5f57"/><circle cx="42" cy="23" r="7" fill="#febc2e"/><circle cx="62" cy="23" r="7" fill="#28c840"/>
  <rect x="120" y="12" width="700" height="22" rx="11" fill="#252d45"/>
  <text x="470" y="28" font-family="system-ui,sans-serif" font-size="12" fill="#5a6480">localhost:8080/announcements</text>
  <rect x="0" y="46" width="200" height="704" fill="#161c2c"/>
  <text x="16" y="82" font-family="system-ui,sans-serif" font-size="13" fill="#6b7494">Dashboard</text>
  <text x="16" y="116" font-family="system-ui,sans-serif" font-size="13" fill="#6b7494">Transactions</text>
  <text x="16" y="152" font-family="system-ui,sans-serif" font-size="13" fill="#6b7494">Schedule</text>
  <rect x="8" y="166" width="184" height="36" rx="6" fill="#3b4fd8" opacity=".9"/>
  <text x="20" y="189" font-family="system-ui,sans-serif" font-size="13" fill="#fff">Announcements</text>
  <!-- Announcement cards -->
  <text x="232" y="88" font-family="system-ui,sans-serif" font-size="18" font-weight="700" fill="#e8ecf4">Announcements</text>
  <rect x="232" y="104" width="140" height="32" rx="6" fill="#3b4fd8"/>
  <text x="302" y="125" font-family="system-ui,sans-serif" font-size="12" fill="#fff" text-anchor="middle">+ Post Announcement</text>
  <rect x="232" y="150" width="920" height="110" rx="10" fill="#1e2640"/>
  <text x="252" y="178" font-family="system-ui,sans-serif" font-size="15" font-weight="700" fill="#e8ecf4">Youth Fellowship This Saturday</text>
  <text x="252" y="200" font-family="system-ui,sans-serif" font-size="12" fill="#6b7494">Posted by Admin • June 1, 2025</text>
  <text x="252" y="224" font-family="system-ui,sans-serif" font-size="13" fill="#c5cee0">Join us this Saturday at 3:00 PM in Hall B for our monthly youth fellowship meeting.</text>
  <rect x="232" y="276" width="920" height="110" rx="10" fill="#1e2640"/>
  <text x="252" y="304" font-family="system-ui,sans-serif" font-size="15" font-weight="700" fill="#e8ecf4">Weekly Bible Study</text>
  <text x="252" y="326" font-family="system-ui,sans-serif" font-size="12" fill="#6b7494">Posted by Admin • May 28, 2025</text>
  <text x="252" y="350" font-family="system-ui,sans-serif" font-size="13" fill="#c5cee0">Bible study every Wednesday at 7:00 PM in Room 2. All are welcome to join.</text>
  <rect x="232" y="402" width="920" height="110" rx="10" fill="#1e2640"/>
  <text x="252" y="430" font-family="system-ui,sans-serif" font-size="15" font-weight="700" fill="#e8ecf4">Annual Fiesta Celebration</text>
  <text x="252" y="452" font-family="system-ui,sans-serif" font-size="12" fill="#6b7494">Posted by Admin • May 20, 2025</text>
  <text x="252" y="476" font-family="system-ui,sans-serif" font-size="13" fill="#c5cee0">Our annual fiesta celebration is on June 15. Food, games, and more for the whole family.</text>
  <text x="600" y="700" font-family="system-ui,sans-serif" font-size="13" fill="rgba(255,255,255,0.15)" text-anchor="middle">Replace with actual screenshot — /public/projects/church/slide-3.svg</text>
</svg>
